<svg version="1.0" xmlns="http://www.w3.org/2000/svg" viewBox="0 0 3200 1800" preserveAspectRatio="xMidYMid slice">
<rect width="3200" height="1800" fill="#e53935"/>
<svg x="1100" y="450" width="1000" height="899.5" viewBox="0 0 2000.0 1799.0" preserveAspectRatio="xMidYMid meet">
<rect width="2000.0" height="1799.0" fill="#e53935"/>
<!-- Meerkat Icon -->
<svg y="0" width="2000.0" height="899.0" viewBox="0 0 2000.0 899.0">
<g transform="translate(0.000000,899.000000) scale(0.100000,-0.100000)"
fill="#263238" stroke="none">
<path d="M10175 7023 c-22 -14 -74 -54 -115 -88 -94 -77 -108 -85 -163 -85
-37 0 -58 9 -134 59 -96 63 -185 111 -205 111 -7 0 -19 -4 -27 -9 -12 -8 -10
-21 13 -85 38 -103 33 -117 -23 -75 -48 34 -145 85 -201 106 -67 24 -91 12
-67 -35 8 -15 28 -54 46 -87 33 -64 30 -75 -16 -52 -15 8 -66 27 -113 42 -76
26 -99 29 -227 29 -103 1 -145 -3 -155 -12 -17 -17 -5 -24 86 -52 125 -38 161
-55 164 -78 4 -23 -8 -28 -158 -57 -169 -34 -332 -101 -439 -180 -105 -78
-213 -219 -267 -349 l-18 -44 -206 -4 c-194 -5 -209 -6 -280 -33 -217 -81
-358 -218 -458 -447 -137 -312 -145 -699 -20 -932 73 -137 112 -190 190 -260
63 -57 67 -76 17 -76 -89 0 -595 -163 -551 -178 6 -2 80 12 164 32 303 69 433
86 674 86 l193 0 21 -69 c33 -102 33 -101 -90 -122 -379 -64 -560 -114 -779
-215 -52 -24 -92 -46 -89 -49 2 -3 31 4 64 14 184 60 449 118 689 150 246 33
257 34 278 22 24 -13 100 -120 97 -136 -1 -5 -43 -20 -93 -32 -168 -41 -444
-149 -614 -239 -90 -48 -163 -94 -151 -94 4 0 72 24 150 54 269 101 615 200
743 212 60 6 60 6 125 -43 36 -27 94 -69 130 -93 217 -145 316 -294 341 -518
11 -100 6 -257 -13 -347 -24 -122 -93 -307 -166 -445 -54 -101 -467 -928 -544
-1090 -104 -214 -127 -268 -121 -274 4 -3 56 -6 116 -6 l110 0 38 40 c102 107
421 530 537 713 61 96 171 302 203 382 56 138 93 258 126 410 27 127 24 466
-6 605 -20 96 -76 256 -106 305 -64 103 -119 181 -200 281 -52 66 -95 124 -95
130 0 17 42 24 190 30 74 3 146 8 160 11 l25 6 -30 8 c-16 5 -118 14 -225 19
l-195 10 -27 33 c-41 49 -53 76 -41 88 11 11 250 -3 368 -22 33 -5 76 -9 95
-8 l35 1 -30 13 c-48 22 -188 52 -345 74 -80 12 -155 23 -167 26 -25 6 -73 95
-76 142 l-2 28 85 -3 c72 -2 147 -13 417 -59 33 -6 56 -26 158 -148 111 -132
240 -268 293 -309 69 -52 97 -67 199 -104 43 -16 134 -57 203 -91 147 -72 241
-96 340 -86 66 7 203 52 248 81 54 36 135 76 190 95 217 75 376 222 510 473
85 158 89 163 124 170 100 18 278 35 383 37 170 2 155 7 155 -49 0 -27 -5 -74
-11 -104 l-11 -55 -52 -7 c-28 -3 -80 -6 -116 -6 -36 0 -121 -7 -190 -16 -69
-8 -152 -18 -185 -21 -132 -12 -60 -18 210 -18 176 0 288 -4 294 -10 6 -6 3
-23 -7 -47 l-17 -38 -135 -1 c-133 -1 -134 -1 -80 -14 30 -7 81 -16 113 -20
38 -4 60 -12 64 -21 12 -32 -125 -210 -368 -479 -227 -252 -289 -422 -291
-799 0 -204 8 -275 62 -496 85 -352 260 -695 502 -986 66 -79 99 -105 65 -52
-80 124 -272 494 -319 612 -10 27 -28 70 -40 95 -36 79 -89 223 -84 228 2 2
16 -17 31 -44 90 -159 186 -314 314 -508 81 -123 178 -286 221 -370 l76 -150
147 -3 c121 -2 147 0 147 11 0 17 -221 531 -315 732 -20 44 -48 107 -62 140
-14 33 -35 80 -48 105 -13 25 -32 65 -43 90 -11 25 -42 97 -70 160 -114 260
-140 333 -178 485 -24 95 -28 130 -28 260 0 133 3 160 27 238 50 167 79 209
317 450 l215 219 50 -7 c56 -7 74 -11 270 -61 77 -19 200 -55 274 -80 74 -24
136 -42 139 -39 12 11 -317 150 -441 186 -40 11 -105 30 -146 42 -40 11 -75
27 -78 34 -9 22 30 83 55 90 27 7 118 -3 222 -23 41 -8 102 -19 135 -25 176
-33 489 -116 678 -180 49 -17 93 -29 99 -27 26 9 -314 161 -452 201 -232 69
-530 137 -595 137 -43 0 -46 19 -24 133 l22 105 156 6 c86 4 198 9 249 12 70
4 124 0 220 -16 157 -27 319 -62 437 -95 161 -44 155 -29 -16 38 -125 49 -287
95 -443 126 -54 10 -99 21 -101 23 -2 2 31 41 74 87 68 74 80 83 103 78 14 -4
54 -11 89 -16 98 -15 172 -29 194 -36 15 -5 17 -4 5 3 -21 14 -187 69 -233 77
-21 4 -41 14 -44 21 -3 8 9 53 27 101 44 124 60 219 60 368 0 151 -19 272 -62
400 -106 312 -243 480 -476 581 -108 47 -213 60 -360 46 -162 -17 -165 -18
-159 -56 3 -17 10 -43 15 -57 l11 -27 198 -6 c191 -6 200 -8 258 -35 33 -16
79 -44 102 -62 134 -108 227 -329 264 -626 31 -255 -65 -505 -248 -646 -32
-24 -80 -55 -108 -69 -74 -37 -194 -82 -201 -76 -3 4 -19 59 -35 123 -37 147
-64 212 -183 436 -71 133 -115 232 -167 377 -100 278 -142 360 -230 449 -85
85 -173 135 -284 160 -66 14 -88 15 -147 5 -192 -33 -330 -178 -388 -407 -24
-97 -26 -249 -6 -359 8 -41 38 -143 65 -226 58 -173 71 -239 71 -367 0 -55 4
-93 10 -93 5 0 54 22 107 49 146 74 218 91 391 91 135 0 147 -2 196 -26 54
-27 118 -82 111 -95 -3 -4 -24 -10 -48 -14 -65 -10 -285 -64 -347 -85 -30 -10
-88 -28 -128 -41 -40 -12 -75 -27 -79 -32 -7 -12 22 -7 147 23 47 11 108 25
135 30 28 5 84 17 125 25 41 8 114 18 162 22 l87 6 20 -34 c12 -19 20 -43 19
-54 -3 -18 -18 -21 -163 -37 -88 -9 -189 -22 -225 -28 -36 -6 -83 -14 -104
-17 l-39 -6 6 33 7 33 -42 -45 c-38 -39 -58 -50 -156 -83 -62 -21 -116 -43
-119 -48 -4 -7 1 -8 13 -3 10 4 35 10 54 13 19 2 48 9 63 15 20 8 31 8 39 0
19 -19 -202 -326 -284 -397 -23 -19 -85 -57 -139 -85 l-97 -50 -127 0 c-145 0
-196 11 -230 52 -33 39 -45 88 -45 183 l0 80 98 45 c225 103 382 239 382 330
0 79 -112 176 -262 226 -296 101 -724 -8 -798 -201 -47 -123 73 -234 390 -361
l105 -42 -1 -104 c-1 -163 -28 -193 -201 -219 -107 -16 -188 -2 -301 52 -96
47 -166 108 -316 279 -226 256 -243 284 -153 249 28 -11 64 -26 80 -34 15 -7
27 -10 26 -7 0 9 -96 72 -108 72 -5 0 -11 3 -13 8 -7 15 -133 86 -167 93 -20
5 -111 34 -203 65 -190 64 -193 68 -91 121 157 83 339 70 620 -45 40 -16 75
-27 78 -24 3 3 5 51 5 106 1 113 13 187 58 357 66 249 48 520 -47 706 -33 65
-128 154 -206 193 -65 32 -78 35 -176 38 -104 4 -109 3 -180 -31 -200 -93
-311 -235 -399 -512 -70 -221 -94 -281 -212 -525 -38 -80 -76 -161 -85 -182
l-14 -36 -82 5 c-45 3 -84 7 -86 9 -2 2 17 35 42 75 26 39 51 94 58 124 15 69
6 337 -15 430 -53 233 -120 351 -236 419 l-33 19 6 -39 c4 -21 11 -59 16 -84
6 -25 10 -74 11 -109 l0 -64 -55 6 c-64 7 -67 0 -34 -73 32 -68 49 -131 49
-177 0 -36 -5 -46 -35 -70 -19 -15 -35 -31 -35 -34 0 -3 25 -39 55 -79 30 -40
55 -80 55 -88 0 -8 -16 -36 -35 -61 -19 -25 -35 -50 -35 -56 0 -5 28 -12 62
-15 l63 -5 33 -68 c27 -53 39 -68 60 -72 15 -3 46 -10 70 -15 23 -6 52 -10 63
-10 19 0 21 -4 16 -37 -17 -111 -29 -169 -37 -177 -5 -5 -55 14 -116 43 -178
85 -292 195 -369 355 -58 122 -68 179 -62 356 6 176 22 268 67 393 55 151 138
252 256 311 52 27 70 30 198 36 117 6 187 6 250 1 4 -1 5 -13 1 -28 -29 -117
-48 -226 -81 -473 -30 -232 -32 -373 -4 -258 5 18 15 58 23 88 8 30 25 100 37
155 51 224 93 374 127 455 113 264 363 488 675 604 165 62 240 77 403 83 230
9 320 -21 445 -147 81 -81 130 -166 170 -297 12 -37 24 -75 27 -83 3 -8 25 45
48 118 64 193 126 284 251 367 116 77 128 80 344 80 209 0 236 -4 411 -64 112
-38 226 -96 324 -166 98 -70 134 -103 190 -177 84 -109 125 -201 191 -427 10
-32 15 0 5 36 -5 21 -15 70 -21 108 -69 400 -198 624 -425 736 -79 39 -252 89
-310 89 -45 0 -166 27 -179 40 -16 16 13 35 93 60 128 41 172 62 169 79 -3 13
-20 17 -98 19 -119 4 -224 -17 -347 -69 -90 -38 -113 -45 -113 -34 0 3 18 39
40 79 45 82 51 116 20 116 -37 0 -165 -71 -240 -132 -36 -29 -66 -37 -57 -15
3 7 15 48 27 91 31 111 20 127 -55 79z m797 -1405 c88 -62 64 -205 -39 -229
-59 -13 -98 -2 -138 42 -42 47 -46 94 -12 154 37 66 123 81 189 33z m-1999
-52 c47 -19 70 -59 70 -123 0 -48 -4 -58 -33 -88 -43 -44 -88 -54 -142 -29
-59 27 -92 74 -85 125 7 50 29 84 70 109 38 23 75 25 120 6z m2494 -201 c43
-121 -52 -314 -195 -398 -76 -45 -142 -62 -232 -60 -120 1 -217 43 -279 121
-33 43 -66 111 -57 119 3 3 33 -17 66 -44 83 -68 132 -91 219 -101 84 -10 147
-1 204 29 123 63 184 155 217 322 14 69 35 74 57 12z m-3055 -135 c52 -202
216 -325 409 -307 76 7 146 40 229 111 54 47 65 52 68 37 9 -58 -109 -186
-200 -218 -38 -13 -82 -18 -158 -18 -99 0 -110 2 -171 32 -164 81 -267 241
-238 373 20 95 34 93 61 -10z m36 -761 c42 -11 100 -26 127 -34 74 -20 147
-45 170 -60 22 -13 71 -103 61 -112 -3 -3 -63 8 -133 25 -71 17 -173 38 -228
47 -142 22 -138 20 -132 65 5 39 33 90 48 90 5 0 44 -9 87 -21z m1291 -145
c24 -31 38 -111 22 -127 -24 -24 -81 57 -81 118 0 28 4 35 19 35 11 0 29 -12
40 -26z m-782 -1469 c-5 -199 -25 -325 -77 -495 -23 -76 -49 -123 -35 -65 4
17 11 50 15 75 5 25 14 68 20 95 22 100 39 234 50 405 6 96 14 186 18 200 l6
25 4 -25 c2 -14 2 -110 -1 -215z"/>
<path d="M10861 6409 c-82 -37 -209 -166 -322 -329 l-24 -35 30 22 c17 12 46
36 65 53 39 35 98 85 204 174 73 60 126 114 126 128 0 14 -33 8 -79 -13z"/>
<path d="M8850 6361 c0 -14 106 -108 244 -216 205 -161 206 -161 72 0 -87 105
-177 183 -244 211 -39 16 -72 18 -72 5z"/>
<path d="M11072 6319 c-79 -15 -198 -85 -312 -183 -58 -50 -62 -61 -14 -40 22
9 119 49 218 89 172 70 237 110 222 134 -8 13 -51 13 -114 0z"/>
<path d="M8630 6251 c-12 -8 -11 -14 8 -34 26 -28 74 -50 237 -110 66 -25 145
-55 175 -67 l55 -22 -25 27 c-37 39 -202 153 -263 180 -58 26 -164 41 -187 26z"/>
<path d="M11996 5804 c-39 -50 -96 -151 -96 -170 0 -16 54 44 95 107 41 62 65
119 51 119 -3 0 -26 -25 -50 -56z"/>
<path d="M12175 5811 c-66 -40 -124 -131 -155 -242 -73 -269 -83 -493 -27
-620 26 -58 76 -139 110 -176 19 -22 22 -22 39 -6 10 9 18 22 18 30 0 7 10 28
22 47 20 30 28 34 81 39 80 7 86 17 44 63 -57 65 -62 79 -36 122 13 20 33 51
45 67 12 17 27 40 33 53 11 21 9 24 -24 38 -64 26 -70 80 -24 211 16 48 33 96
36 107 5 17 2 18 -48 11 -30 -3 -63 -9 -73 -12 -18 -5 -18 0 -13 93 4 55 9
120 13 147 7 52 3 55 -41 28z"/>
<path d="M9905 4834 c-128 -15 -249 -66 -333 -140 -47 -41 -99 -110 -90 -119
2 -2 24 12 48 32 226 179 581 187 833 18 65 -43 67 -44 53 -17 -24 47 -131
138 -198 170 -91 42 -224 66 -313 56z"/>
<path d="M9330 3434 c0 -20 76 -121 134 -180 154 -153 314 -211 551 -201 205
9 325 59 462 192 75 72 98 105 75 105 -5 0 -38 -19 -73 -42 -82 -53 -209 -113
-285 -134 -81 -22 -260 -30 -348 -14 -85 14 -133 29 -212 67 -116 54 -176 96
-266 181 -21 20 -38 32 -38 26z"/>
<path d="M10804 3074 c-3 -10 -12 -33 -20 -50 -17 -38 -58 -204 -76 -304 -18
-104 -15 -406 4 -485 22 -87 26 -54 31 235 5 250 18 373 58 534 10 44 17 81
14 84 -2 3 -7 -4 -11 -14z"/>
<path d="M9127 2805 c-7 -158 -27 -280 -63 -404 -12 -39 36 64 56 121 17 49
23 94 27 203 2 77 1 158 -4 180 -8 33 -10 16 -16 -100z"/>
</g>
</svg>
<!-- Keeny Wordmark -->
<svg y="899.0" width="2000.0" height="640.0" viewBox="0 0 2000.0 640.0">
<g transform="translate(0.000000,640.000000) scale(0.100000,-0.100000)"
fill="#ffffff" stroke="none">
<path d="M1940 5005 l0 -325 205 0 205 0 0 -1183 c0 -651 -3 -1198 -6 -1215
l-6 -32 -199 0 -199 0 0 -325 0 -325 880 0 880 0 0 325 0 325 -205 0 -205 0 2
417 3 418 127 3 126 3 20 -28 c10 -15 119 -190 242 -388 122 -198 234 -379
249 -401 14 -23 114 -184 221 -357 l195 -317 553 0 552 0 -2 322 -3 323 -193
5 -193 5 -94 145 c-51 80 -121 188 -155 240 -34 52 -91 141 -128 198 -37 56
-168 257 -290 447 l-224 345 27 32 c15 18 184 206 374 419 190 212 389 433
441 492 l95 107 158 0 157 0 0 325 0 325 -805 0 -805 0 0 -325 0 -324 146 -3
146 -3 -333 -367 -334 -368 -137 0 -138 0 0 370 0 370 175 0 175 0 0 325 0
325 -850 0 -850 0 0 -325z"/>
<path d="M6925 4295 c-514 -80 -847 -363 -994 -841 -100 -327 -104 -769 -10
-1087 134 -453 448 -722 954 -819 106 -20 149 -23 365 -22 225 0 256 3 375 27
365 75 598 244 747 542 41 81 82 194 74 202 -3 3 -65 16 -138 29 -357 64 -547
96 -584 101 l-41 5 -13 -46 c-17 -61 -69 -129 -124 -161 -56 -33 -160 -55
-261 -55 -325 0 -469 135 -500 473 l-7 77 837 0 837 0 -5 283 c-6 312 -18 403
-76 577 -60 178 -140 310 -257 427 -155 152 -362 247 -634 288 -117 18 -432
18 -545 0z m373 -620 c136 -41 221 -184 222 -372 l0 -53 -371 0 -371 0 7 43
c38 222 116 337 260 383 56 18 191 17 253 -1z"/>
<path d="M9870 4303 c-67 -7 -195 -34 -278 -59 -385 -116 -659 -400 -776 -807
-51 -177 -70 -326 -69 -547 0 -212 12 -320 53 -482 63 -246 195 -461 370 -601
229 -183 510 -273 885 -284 461 -14 783 85 1006 307 91 90 137 154 192 266 43
86 82 192 74 201 -4 3 -66 17 -139 30 -240 43 -542 95 -583 100 l-40 5 -14
-47 c-18 -61 -65 -123 -122 -157 -118 -73 -388 -78 -534 -9 -139 65 -203 187
-230 439 l-7 62 841 0 841 0 0 118 c-1 314 -32 581 -90 751 -134 400 -434 639
-883 705 -96 15 -393 20 -497 9z m358 -643 c108 -47 167 -155 179 -327 l6 -83
-371 0 -371 0 5 33 c44 244 110 344 259 394 65 21 228 12 293 -17z"/>
<path d="M13520 4303 c-309 -48 -531 -203 -672 -468 l-37 -70 -1 232 0 233
-562 2 c-310 2 -580 2 -601 0 l-37 -3 2 -312 3 -312 193 -3 192 -2 0 -685 0
-685 -150 0 -150 0 0 -315 0 -315 710 0 710 0 0 315 0 315 -120 0 c-89 0 -120
3 -120 13 -1 6 0 188 0 404 1 440 -1 426 82 588 126 245 297 360 492 331 89
-14 155 -101 182 -243 11 -59 14 -181 14 -562 0 -267 0 -496 0 -508 0 -23 -2
-23 -120 -23 l-120 0 0 -315 0 -315 710 0 710 0 0 315 0 315 -150 0 -150 0 0
615 c0 500 -3 635 -15 725 -38 269 -128 456 -278 575 -104 83 -209 129 -351
154 -56 10 -311 13 -366 4z"/>
<path d="M15663 4232 l-653 -2 0 -315 0 -315 129 0 128 0 27 -59 c14 -32 62
-134 107 -227 45 -93 95 -198 111 -234 17 -36 65 -139 108 -230 43 -91 135
-286 205 -435 70 -148 183 -388 251 -533 l124 -263 -30 -172 c-49 -279 -76
-360 -146 -437 -66 -73 -198 -97 -295 -53 -53 24 -120 80 -160 136 l-28 38
-143 -193 c-176 -236 -252 -339 -262 -356 -22 -37 128 -175 272 -250 266 -139
688 -135 975 9 174 88 303 223 405 424 71 141 103 268 178 695 13 69 94 283
426 1113 l410 1027 129 0 129 0 0 315 0 315 -47 0 c-105 0 -1229 0 -1245 0
-17 0 -18 -22 -18 -315 l0 -315 110 0 c64 0 110 -4 110 -10 0 -8 -111 -333
-200 -585 -16 -44 -56 -161 -90 -260 -34 -99 -66 -187 -70 -195 -9 -15 -8 -16
-82 165 -22 55 -112 274 -199 487 -88 213 -159 389 -159 392 0 3 48 7 108 8
l107 3 3 311 2 312 -37 3 c-21 2 -332 3 -690 1z"/>
</g>
</svg>
<!-- Slogan -->
<svg y="1539.0" width="2000.0" height="260.0" viewBox="0 0 2000.0 260.0">
<g transform="translate(0.000000,260.000000) scale(0.100000,-0.100000)"
fill="#263238" stroke="none">
<path d="M3590 2162 c-29 -25 -33 -34 -33 -77 0 -41 4 -52 31 -77 40 -35 99
-39 127 -8 17 19 17 19 -23 3 -38 -15 -43 -14 -74 4 -62 36 -60 127 3 153 28
12 51 11 94 -5 17 -6 17 -4 -4 14 -33 30 -80 27 -121 -7z"/>
<path d="M4076 2156 c-29 -27 -36 -41 -36 -71 0 -50 32 -93 75 -101 69 -13
118 18 128 82 8 48 -6 80 -45 104 -48 29 -81 25 -122 -14z m109 8 c20 -8 45
-56 45 -87 0 -31 -33 -73 -64 -81 -29 -7 -74 8 -92 32 -8 9 -14 34 -14 55 0
65 62 105 125 81z"/>
<path d="M5080 2084 c0 -67 4 -103 10 -99 6 3 10 24 10 46 0 34 3 39 23 39 30
0 63 24 70 51 8 32 -33 69 -78 69 l-35 0 0 -106z m90 66 c16 -30 -4 -60 -40
-60 -28 0 -30 2 -30 40 0 38 2 40 30 40 19 0 33 -7 40 -20z"/>
<path d="M6236 2156 c-45 -42 -49 -94 -12 -141 21 -26 30 -30 75 -30 27 0 55
5 62 12 9 9 -1 11 -43 6 -48 -5 -58 -3 -77 16 -32 32 -29 103 5 130 28 22 88
28 99 11 3 -5 14 -10 23 -10 13 0 12 5 -8 20 -39 30 -83 26 -124 -14z"/>
<path d="M7120 2180 c0 -5 11 -10 25 -10 25 0 25 -1 25 -86 0 -59 3 -83 11
-78 6 3 10 34 9 73 -3 91 -3 91 25 91 14 0 25 5 25 10 0 6 -27 10 -60 10 -33
0 -60 -4 -60 -10z"/>
<path d="M7540 2086 c0 -65 4 -106 11 -108 5 -2 29 -1 52 1 l42 5 -40 6 c-39
5 -40 6 -40 45 0 33 3 39 18 37 9 -2 25 2 35 7 14 8 10 10 -20 11 -38 0 -38 0
-38 40 l0 40 40 0 c22 0 40 5 40 10 0 6 -22 10 -50 10 l-50 0 0 -104z"/>
<path d="M7957 2183 c-4 -3 -7 -51 -7 -106 l0 -99 59 4 c59 4 78 15 99 55 22
40 14 79 -22 117 -29 31 -40 36 -78 36 -25 0 -48 -3 -51 -7z m98 -19 c8 -4 23
-20 31 -36 21 -40 11 -91 -23 -118 -28 -22 -78 -27 -89 -9 -5 9 -9 129 -5 162
1 9 63 9 86 1z"/>
<path d="M8770 2180 c0 -5 11 -10 25 -10 25 0 25 0 25 -96 0 -61 4 -93 10 -89
6 3 10 46 10 96 0 88 0 89 25 89 14 0 25 5 25 10 0 6 -27 10 -60 10 -33 0 -60
-4 -60 -10z"/>
<path d="M10470 2161 c-31 -25 -35 -34 -35 -76 0 -40 5 -51 33 -76 37 -33 68
-36 118 -13 30 14 34 21 34 55 0 39 0 39 -40 39 -22 0 -40 -4 -40 -10 0 -5 14
-10 30 -10 26 0 30 -3 30 -29 0 -32 -14 -41 -66 -41 -24 0 -43 8 -61 26 -22
22 -25 32 -20 67 9 68 64 92 142 63 16 -6 15 -4 -5 13 -36 29 -79 27 -120 -8z"/>
<path d="M10940 2165 c-20 -21 -22 -29 -12 -49 6 -13 28 -32 49 -42 47 -23 55
-54 19 -74 -23 -12 -27 -11 -45 11 -15 17 -20 20 -21 9 0 -39 48 -52 88 -24
38 26 26 62 -30 92 -48 26 -59 47 -36 70 18 18 46 14 60 -8 14 -21 28 -27 28
-10 0 15 -42 50 -60 50 -9 0 -27 -11 -40 -25z"/>
<path d="M12024 2177 c-3 -8 -3 -56 -2 -108 l3 -94 35 3 c104 8 129 36 121
134 0 9 -15 30 -32 47 -25 25 -39 31 -75 31 -28 0 -47 -5 -50 -13z m116 -25
c18 -14 23 -30 24 -65 1 -59 -25 -89 -81 -91 l-38 -1 -3 88 -3 87 40 0 c23 0
48 -8 61 -18z"/>
<path d="M12533 2164 c-65 -51 -53 -142 24 -176 43 -19 43 -19 82 3 81 45 81
143 0 185 -40 20 -70 17 -106 -12z m119 -21 c55 -53 22 -144 -54 -146 -85 -2
-121 97 -55 156 29 26 76 22 109 -10z"/>
<path d="M13460 2087 c0 -57 2 -106 4 -108 2 -2 28 -2 58 1 l53 4 -45 6 c-43
5 -45 6 -48 41 -3 35 -2 36 40 44 l43 8 -40 6 c-38 6 -40 8 -43 44 l-3 37 45
0 c25 0 46 5 46 10 0 6 -25 10 -55 10 l-55 0 0 -103z"/>
<path d="M14684 2177 c-3 -8 -4 -54 -2 -103 l3 -89 55 -1 c54 -2 54 -2 10 5
-43 6 -45 8 -48 42 -3 35 -2 36 40 44 l43 8 -40 6 c-38 6 -40 8 -43 44 l-3 37
45 0 c25 0 46 5 46 10 0 16 -100 12 -106 -3z"/>
<path d="M15520 2180 c0 -5 11 -10 24 -10 31 0 36 -15 36 -108 1 -58 3 -73 11
-59 6 10 8 44 5 78 -6 71 -1 89 25 89 10 0 19 5 19 10 0 6 -27 10 -60 10 -33
0 -60 -4 -60 -10z"/>
<path d="M4560 2084 c0 -66 3 -93 11 -88 6 3 9 17 6 30 -2 12 -1 40 2 61 l7
38 28 -62 c43 -95 50 -97 86 -19 17 37 35 64 41 61 5 -4 9 -31 9 -61 0 -92 16
-52 18 45 3 116 -10 118 -61 11 -23 -50 -42 -77 -50 -74 -6 3 -27 38 -46 79
-19 41 -38 75 -43 75 -4 0 -8 -43 -8 -96z"/>
<path d="M6736 2138 c-10 -24 -26 -62 -37 -85 -23 -52 -26 -92 -3 -50 13 24
20 27 69 27 30 0 55 -4 55 -8 0 -5 7 -17 16 -28 15 -18 15 -18 9 9 -3 15 -19
57 -35 93 -17 35 -30 69 -30 74 0 26 -28 5 -44 -32z m53 -34 c15 -40 6 -54
-35 -54 -30 0 -34 8 -21 38 26 62 38 65 56 16z"/>
<path d="M9188 2174 c-11 -11 -10 -182 1 -189 6 -3 11 16 13 42 3 46 4 48 38
53 67 10 80 3 80 -46 0 -24 5 -44 10 -44 6 0 10 38 10 95 0 57 -4 95 -10 95
-5 0 -10 -18 -10 -40 l0 -41 -57 3 -58 3 -5 38 c-3 22 -8 35 -12 31z"/>
<path d="M9980 2086 c0 -53 4 -98 10 -101 6 -4 10 22 10 72 l0 78 25 -30 c14
-16 34 -46 44 -66 11 -19 27 -41 35 -48 14 -12 16 -3 16 90 0 114 -17 129 -22
19 l-3 -65 -47 73 c-26 39 -52 72 -58 72 -6 0 -10 -37 -10 -94z"/>
<path d="M13011 2083 c1 -79 3 -90 10 -58 4 22 8 55 8 74 1 34 1 34 19 13 9
-12 31 -44 47 -71 45 -76 56 -68 50 40 -5 110 -15 130 -15 31 0 -70 -12 -93
-28 -54 -12 31 -75 122 -84 122 -4 0 -7 -44 -7 -97z"/>
<path d="M14230 2093 c1 -68 3 -84 11 -69 6 10 9 33 6 50 -9 58 8 63 42 13 17
-25 31 -50 31 -55 0 -10 33 -42 43 -42 4 0 7 41 7 91 0 62 -3 88 -11 84 -6 -4
-10 -26 -8 -49 5 -96 2 -96 -52 -13 -29 42 -56 77 -60 77 -5 0 -9 -39 -9 -87z"/>
<path d="M15132 2118 c-44 -98 -55 -128 -49 -135 4 -3 12 6 18 21 11 23 18 26
64 26 46 0 55 -4 70 -26 9 -14 19 -24 21 -21 7 6 -74 191 -85 195 -6 2 -23
-25 -39 -60z m58 -8 c18 -42 7 -64 -28 -55 -36 9 -35 8 -18 49 18 44 30 45 46
6z"/>
<path d="M15940 2080 l0 -100 48 1 c44 2 45 2 12 8 l-35 6 -3 93 c-4 125 -22
119 -22 -8z"/>
<path d="M16321 2143 c44 -74 49 -88 43 -119 -3 -18 -1 -34 4 -38 5 -3 12 15
16 40 3 26 18 68 33 95 34 63 24 76 -12 15 -15 -25 -29 -46 -31 -46 -2 0 -15
20 -30 45 -14 25 -30 45 -36 45 -5 0 0 -17 13 -37z"/>
<path d="M5492 2080 l3 -95 40 -2 c35 -1 36 -1 10 5 -30 7 -30 7 -33 87 -2 44
-7 84 -13 90 -6 6 -9 -22 -7 -85z"/>
<path d="M9650 2082 c0 -46 4 -82 10 -82 11 0 9 145 -3 156 -4 4 -7 -29 -7
-74z"/>
<path d="M5870 2068 c0 -57 3 -78 10 -68 13 20 13 150 0 150 -6 0 -10 -34 -10
-82z"/>
<path d="M11340 1975 c0 -15 4 -24 10 -20 6 3 10 12 10 20 0 8 -4 17 -10 20
-6 4 -10 -5 -10 -20z"/>
</g>
</svg>
</svg>
</svg>
